<?xml version="1.0" encoding="utf-8"?>
<!-- Svg Vector Icons : http://www.onlinewebfonts.com/icon -->
<!DOCTYPE svg PUBLIC "-//W3C//DTD SVG 1.1//EN" "http://www.w3.org/Graphics/SVG/1.1/DTD/svg11.dtd">
<svg version="1.1" xmlns="http://www.w3.org/2000/svg" xmlns:xlink="http://www.w3.org/1999/xlink" x="0px" y="0px" viewBox="0 0 1000 1000" enable-background="new 0 0 1000 1000" xml:space="preserve">
<metadata> Svg Vector Icons : http://www.onlinewebfonts.com/icon </metadata>
<g><path d="M807.3,340.8v98.8c0,24.2,13.8,29.8,30.8,12.7l140.8-142.2c14.9-15,14.9-39.4,0-54.5L838,113.5c-17-17.2-30.8-11.5-30.8,12.7v75.2h-178c-183.9,0-317,458.4-431.8,458.4H75.7c-36.3,0-65.7,29.4-65.7,65.7v8.1c0,36.3,29.4,65.7,65.7,65.7h121.8c183.9,0,317-458.4,431.8-458.4H807.3z M518.4,558.1c39.3,59.1,75.9,101.6,110.9,101.6h178v-97.8c0-24.7,14.1-30.5,31.5-13l139.5,140.8c15.2,15.4,15.2,40.3,0,55.7L838.7,886.3c-17.4,17.6-31.5,11.8-31.5-13v-74.2h-178c-67.5,0-121.2-53.3-176.7-131.1L518.4,558.1z M311.5,447c-42.6-66.1-76.5-106.2-114.1-106.2H77.1c-37.1,0-67.1-30.1-67.1-67.2v-5.1c0-37.1,30.1-67.2,67.1-67.2h120.3c66.2,0,128.1,62.4,183.4,139.5L311.5,447z"/></g>
</svg>